<?xml version="1.0" encoding="utf-8"?>
<!-- Generator: Adobe Illustrator 16.2.0, SVG Export Plug-In . SVG Version: 6.00 Build 0)  -->
<!DOCTYPE svg PUBLIC "-//W3C//DTD SVG 1.1//EN" "http://www.w3.org/Graphics/SVG/1.1/DTD/svg11.dtd">
<svg version="1.1" xmlns="http://www.w3.org/2000/svg" xmlns:xlink="http://www.w3.org/1999/xlink" x="0px" y="0px" width="256px"
	 height="92px" viewBox="0 0 256 92" enable-background="new 0 0 256 92" xml:space="preserve">
<g id="BACKGROUND">
</g>
<g id="OBJECTS">
	<g>
		<g>
			<g>
				<linearGradient id="SVGID_1_" gradientUnits="userSpaceOnUse" x1="7.6768" y1="56.5557" x2="117.1531" y2="56.5557">
					<stop  offset="0" style="stop-color:#FC1B7C"/>
					<stop  offset="0.4923" style="stop-color:#714CF4"/>
					<stop  offset="1" style="stop-color:#0084F3"/>
				</linearGradient>
				<polyline fill-rule="evenodd" clip-rule="evenodd" fill="url(#SVGID_1_)" points="76.103,59.04 76.103,54.072 83.943,54.072 
					83.943,59.04 				"/>
				<linearGradient id="SVGID_2_" gradientUnits="userSpaceOnUse" x1="7.6768" y1="64.0063" x2="117.1531" y2="64.0063">
					<stop  offset="0" style="stop-color:#FC1B7C"/>
					<stop  offset="0.4923" style="stop-color:#714CF4"/>
					<stop  offset="1" style="stop-color:#0084F3"/>
				</linearGradient>
				<rect x="76.103" y="61.522" fill-rule="evenodd" clip-rule="evenodd" fill="url(#SVGID_2_)" width="7.84" height="4.969"/>
				<linearGradient id="SVGID_3_" gradientUnits="userSpaceOnUse" x1="7.6768" y1="71.458" x2="117.1531" y2="71.458">
					<stop  offset="0" style="stop-color:#FC1B7C"/>
					<stop  offset="0.4923" style="stop-color:#714CF4"/>
					<stop  offset="1" style="stop-color:#0084F3"/>
				</linearGradient>
				<rect x="76.103" y="68.974" fill-rule="evenodd" clip-rule="evenodd" fill="url(#SVGID_3_)" width="7.84" height="4.968"/>
				<linearGradient id="SVGID_4_" gradientUnits="userSpaceOnUse" x1="7.6768" y1="78.9106" x2="117.1531" y2="78.9106">
					<stop  offset="0" style="stop-color:#FC1B7C"/>
					<stop  offset="0.4923" style="stop-color:#714CF4"/>
					<stop  offset="1" style="stop-color:#0084F3"/>
				</linearGradient>
				<rect x="76.103" y="76.426" fill-rule="evenodd" clip-rule="evenodd" fill="url(#SVGID_4_)" width="7.84" height="4.969"/>
			</g>
			<g>
				<linearGradient id="SVGID_5_" gradientUnits="userSpaceOnUse" x1="7.686" y1="64.0063" x2="117.1461" y2="64.0063">
					<stop  offset="0" style="stop-color:#FC1B7C"/>
					<stop  offset="0.4923" style="stop-color:#714CF4"/>
					<stop  offset="1" style="stop-color:#0084F3"/>
				</linearGradient>
				<rect x="66.343" y="61.522" fill-rule="evenodd" clip-rule="evenodd" fill="url(#SVGID_5_)" width="7.838" height="4.969"/>
				<linearGradient id="SVGID_6_" gradientUnits="userSpaceOnUse" x1="7.686" y1="71.458" x2="117.1461" y2="71.458">
					<stop  offset="0" style="stop-color:#FC1B7C"/>
					<stop  offset="0.4923" style="stop-color:#714CF4"/>
					<stop  offset="1" style="stop-color:#0084F3"/>
				</linearGradient>
				<rect x="66.343" y="68.974" fill-rule="evenodd" clip-rule="evenodd" fill="url(#SVGID_6_)" width="7.838" height="4.968"/>
				<linearGradient id="SVGID_7_" gradientUnits="userSpaceOnUse" x1="7.686" y1="78.9106" x2="117.1461" y2="78.9106">
					<stop  offset="0" style="stop-color:#FC1B7C"/>
					<stop  offset="0.4923" style="stop-color:#714CF4"/>
					<stop  offset="1" style="stop-color:#0084F3"/>
				</linearGradient>
				<rect x="66.343" y="76.426" fill-rule="evenodd" clip-rule="evenodd" fill="url(#SVGID_7_)" width="7.838" height="4.969"/>
			</g>
			<g>
				<linearGradient id="SVGID_8_" gradientUnits="userSpaceOnUse" x1="7.6812" y1="41.6504" x2="117.1495" y2="41.6504">
					<stop  offset="0" style="stop-color:#FC1B7C"/>
					<stop  offset="0.4923" style="stop-color:#714CF4"/>
					<stop  offset="1" style="stop-color:#0084F3"/>
				</linearGradient>
				<rect x="56.583" y="39.166" fill-rule="evenodd" clip-rule="evenodd" fill="url(#SVGID_8_)" width="7.837" height="4.97"/>
				<linearGradient id="SVGID_9_" gradientUnits="userSpaceOnUse" x1="7.6812" y1="49.1025" x2="117.1495" y2="49.1025">
					<stop  offset="0" style="stop-color:#FC1B7C"/>
					<stop  offset="0.4923" style="stop-color:#714CF4"/>
					<stop  offset="1" style="stop-color:#0084F3"/>
				</linearGradient>
				<rect x="56.583" y="46.619" fill-rule="evenodd" clip-rule="evenodd" fill="url(#SVGID_9_)" width="7.837" height="4.968"/>
				<linearGradient id="SVGID_10_" gradientUnits="userSpaceOnUse" x1="7.6812" y1="56.5557" x2="117.1495" y2="56.5557">
					<stop  offset="0" style="stop-color:#FC1B7C"/>
					<stop  offset="0.4923" style="stop-color:#714CF4"/>
					<stop  offset="1" style="stop-color:#0084F3"/>
				</linearGradient>
				<rect x="56.583" y="54.072" fill-rule="evenodd" clip-rule="evenodd" fill="url(#SVGID_10_)" width="7.837" height="4.968"/>
				<linearGradient id="SVGID_11_" gradientUnits="userSpaceOnUse" x1="7.6812" y1="64.0063" x2="117.1495" y2="64.0063">
					<stop  offset="0" style="stop-color:#FC1B7C"/>
					<stop  offset="0.4923" style="stop-color:#714CF4"/>
					<stop  offset="1" style="stop-color:#0084F3"/>
				</linearGradient>
				<rect x="56.583" y="61.522" fill-rule="evenodd" clip-rule="evenodd" fill="url(#SVGID_11_)" width="7.837" height="4.969"/>
				<linearGradient id="SVGID_12_" gradientUnits="userSpaceOnUse" x1="7.6812" y1="71.458" x2="117.1495" y2="71.458">
					<stop  offset="0" style="stop-color:#FC1B7C"/>
					<stop  offset="0.4923" style="stop-color:#714CF4"/>
					<stop  offset="1" style="stop-color:#0084F3"/>
				</linearGradient>
				<rect x="56.583" y="68.974" fill-rule="evenodd" clip-rule="evenodd" fill="url(#SVGID_12_)" width="7.837" height="4.968"/>
				<linearGradient id="SVGID_13_" gradientUnits="userSpaceOnUse" x1="7.6812" y1="78.9106" x2="117.1495" y2="78.9106">
					<stop  offset="0" style="stop-color:#FC1B7C"/>
					<stop  offset="0.4923" style="stop-color:#714CF4"/>
					<stop  offset="1" style="stop-color:#0084F3"/>
				</linearGradient>
				<rect x="56.583" y="76.426" fill-rule="evenodd" clip-rule="evenodd" fill="url(#SVGID_13_)" width="7.837" height="4.969"/>
			</g>
			<g>
				<linearGradient id="SVGID_14_" gradientUnits="userSpaceOnUse" x1="7.6782" y1="71.458" x2="117.1546" y2="71.458">
					<stop  offset="0" style="stop-color:#FC1B7C"/>
					<stop  offset="0.4923" style="stop-color:#714CF4"/>
					<stop  offset="1" style="stop-color:#0084F3"/>
				</linearGradient>
				<rect x="46.822" y="68.974" fill-rule="evenodd" clip-rule="evenodd" fill="url(#SVGID_14_)" width="7.84" height="4.968"/>
				<linearGradient id="SVGID_15_" gradientUnits="userSpaceOnUse" x1="7.6782" y1="78.9106" x2="117.1546" y2="78.9106">
					<stop  offset="0" style="stop-color:#FC1B7C"/>
					<stop  offset="0.4923" style="stop-color:#714CF4"/>
					<stop  offset="1" style="stop-color:#0084F3"/>
				</linearGradient>
				<rect x="46.822" y="76.426" fill-rule="evenodd" clip-rule="evenodd" fill="url(#SVGID_15_)" width="7.84" height="4.969"/>
			</g>
			<g>
				<linearGradient id="SVGID_16_" gradientUnits="userSpaceOnUse" x1="7.6802" y1="56.5557" x2="117.1539" y2="56.5557">
					<stop  offset="0" style="stop-color:#FC1B7C"/>
					<stop  offset="0.4923" style="stop-color:#714CF4"/>
					<stop  offset="1" style="stop-color:#0084F3"/>
				</linearGradient>
				<rect x="37.063" y="54.072" fill-rule="evenodd" clip-rule="evenodd" fill="url(#SVGID_16_)" width="7.839" height="4.968"/>
				<linearGradient id="SVGID_17_" gradientUnits="userSpaceOnUse" x1="7.6802" y1="64.0063" x2="117.1539" y2="64.0063">
					<stop  offset="0" style="stop-color:#FC1B7C"/>
					<stop  offset="0.4923" style="stop-color:#714CF4"/>
					<stop  offset="1" style="stop-color:#0084F3"/>
				</linearGradient>
				<rect x="37.063" y="61.522" fill-rule="evenodd" clip-rule="evenodd" fill="url(#SVGID_17_)" width="7.839" height="4.969"/>
				<linearGradient id="SVGID_18_" gradientUnits="userSpaceOnUse" x1="7.6802" y1="71.458" x2="117.1539" y2="71.458">
					<stop  offset="0" style="stop-color:#FC1B7C"/>
					<stop  offset="0.4923" style="stop-color:#714CF4"/>
					<stop  offset="1" style="stop-color:#0084F3"/>
				</linearGradient>
				<rect x="37.063" y="68.974" fill-rule="evenodd" clip-rule="evenodd" fill="url(#SVGID_18_)" width="7.839" height="4.968"/>
				<linearGradient id="SVGID_19_" gradientUnits="userSpaceOnUse" x1="7.6802" y1="78.9106" x2="117.1539" y2="78.9106">
					<stop  offset="0" style="stop-color:#FC1B7C"/>
					<stop  offset="0.4923" style="stop-color:#714CF4"/>
					<stop  offset="1" style="stop-color:#0084F3"/>
				</linearGradient>
				<rect x="37.063" y="76.426" fill-rule="evenodd" clip-rule="evenodd" fill="url(#SVGID_19_)" width="7.839" height="4.969"/>
			</g>
		</g>
		<linearGradient id="SVGID_20_" gradientUnits="userSpaceOnUse" x1="7.6802" y1="46" x2="117.1515" y2="46">
			<stop  offset="0" style="stop-color:#FC1B7C"/>
			<stop  offset="0.4923" style="stop-color:#714CF4"/>
			<stop  offset="1" style="stop-color:#0084F3"/>
		</linearGradient>
		<path fill="url(#SVGID_20_)" d="M107.322,51.481V50.63c0-1.38-0.447-2.658-1.196-3.708c-0.951-11.204-5.946-21.269-13.524-28.726
			l1.154-1.153C85.187,8.611,73.445,3.396,60.503,3.396S35.818,8.611,27.25,17.044l1.153,1.153
			c-7.578,7.456-12.572,17.521-13.523,28.725c-0.751,1.049-1.197,2.327-1.197,3.708v0.851c-5.868,0-8.355,6.685-8.355,14.932
			s2.487,14.933,8.355,14.933v0.851c0,3.524,2.883,6.408,6.408,6.408h1.132c3.525,0,6.409-2.884,6.409-6.408V50.63
			c0-3.525-2.884-6.409-6.409-6.409h-1.132c-0.822,0-1.607,0.162-2.332,0.448c1.373-9.577,5.898-18.147,12.49-24.627l1.152,1.153
			C38.906,13.827,49.181,9.27,60.503,9.27s21.596,4.557,29.1,11.926l1.152-1.153c6.593,6.479,11.117,15.05,12.492,24.628
			c-0.726-0.287-1.512-0.449-2.335-0.449h-1.132c-3.525,0-6.408,2.884-6.408,6.409v31.565c0,3.524,2.883,6.408,6.408,6.408h1.132
			c3.525,0,6.409-2.884,6.409-6.408v-0.851c5.867,0,8.355-6.686,8.355-14.933S113.189,51.481,107.322,51.481z"/>
	</g>
	<g>
		<g>
			<path fill="#1B110A" d="M153.664,18.966v19.723h-7.646v-7.27h-7.063v7.27h-7.646V18.966h7.646v6.987h7.063v-6.987H153.664z"/>
			<path fill="#1B110A" d="M176.927,35.251h-8.618l-1.523,3.438h-7.775l9.914-19.723h7.518l9.914,19.723h-7.905L176.927,35.251z
				 M174.822,30.461l-2.203-4.959l-2.204,4.959H174.822z"/>
			<path fill="#1B110A" d="M153.988,52.776l-9.104,14.849c-1.08,1.766-2.403,3.109-3.969,4.029c-1.566,0.92-3.289,1.38-5.168,1.38
				c-1.448,0-2.917-0.263-4.407-0.788l1.782-4.79c0.95,0.226,1.728,0.338,2.333,0.338c0.562,0,1.042-0.084,1.441-0.254
				c0.399-0.169,0.783-0.45,1.15-0.845l-8.684-13.919h8.068l4.504,8.313l4.665-8.313H153.988z"/>
			<path fill="#1B110A" d="M190.472,52.776v19.723h-31.656V52.776h7.518v14.567h4.568V52.776h7.517v14.567h4.536V52.776H190.472z"/>
			<path fill="#1B110A" d="M213.735,69.061h-8.618l-1.523,3.438h-7.775l9.914-19.723h7.518l9.914,19.723h-7.905L213.735,69.061z
				 M211.629,64.272l-2.203-4.959l-2.204,4.959H211.629z"/>
			<path fill="#1B110A" d="M234.537,52.749l3.306,4.648l3.305-4.648h8.846l-7.355,9.41l8.036,10.34h-9.007l-3.823-5.1l-3.759,5.1
				h-8.78l7.971-10.03l-7.485-9.72H234.537z"/>
		</g>
	</g>
</g>
</svg>
